<?xml version="1.0" standalone="no"?>
<!DOCTYPE svg PUBLIC "-//W3C//DTD SVG 20010904//EN"
 "http://www.w3.org/TR/2001/REC-SVG-20010904/DTD/svg10.dtd">
<svg version="1.0" xmlns="http://www.w3.org/2000/svg"
 width="300.000000pt" height="300.000000pt" viewBox="0 0 300.000000 300.000000"
 preserveAspectRatio="xMidYMid meet">
<metadata>
Created by potrace 1.11, written by Peter Selinger 2001-2013
</metadata>
<g transform="translate(0.000000,300.000000) scale(0.100000,-0.100000)"
fill="#000000" stroke="none">
<path d="M330 2842 c-27 -10 -67 -39 -100 -72 -97 -97 -90 7 -90 -1270 0
-1277 -7 -1173 90 -1270 97 -97 -7 -90 1270 -90 1277 0 1172 -7 1271 90 96 95
88 -7 88 1280 l0 1125 -22 45 c-34 72 -103 137 -169 160 -57 20 -81 20 -1175
19 -1018 -1 -1122 -2 -1163 -17z"/>
</g>
</svg>
